<svg t="1704872495483" class="icon" viewBox="0 0 1024 1024" version="1.1" xmlns="http://www.w3.org/2000/svg" p-id="2558" width="32" height="32"><path d="M511.999488 0.001024a511.999488 511.999488 0 1 0 511.999488 511.999488A510.975489 510.975489 0 0 0 511.999488 0.001024z m333.439667 666.879333a39.61596 39.61596 0 0 1-36.735964 23.679976 33.279967 33.279967 0 0 1-15.743984-2.623997L491.007509 551.360473A41.087959 41.087959 0 0 1 467.199533 514.560509V231.040793a39.423961 39.423961 0 0 1 78.847921 0v259.96774l278.399722 125.951874c20.991979 7.871992 28.863971 28.927971 20.991979 49.91995z" fill="#8a8a8a" p-id="2559"></path></svg>