<?xml version="1.0" encoding="UTF-8"?>
<!DOCTYPE svg PUBLIC "-//W3C//DTD SVG 1.1//EN" "http://www.w3.org/Graphics/SVG/1.1/DTD/svg11.dtd">
<svg xmlns="http://www.w3.org/2000/svg" version="1.1" width="1024px" height="1024px" style="shape-rendering:geometricPrecision; text-rendering:geometricPrecision; image-rendering:optimizeQuality; fill-rule:evenodd; clip-rule:evenodd" xmlns:xlink="http://www.w3.org/1999/xlink">
<g><path style="opacity:1" fill="#001e2e" d="M -0.5,-0.5 C 340.833,-0.5 682.167,-0.5 1023.5,-0.5C 1023.5,340.833 1023.5,682.167 1023.5,1023.5C 682.167,1023.5 340.833,1023.5 -0.5,1023.5C -0.5,682.167 -0.5,340.833 -0.5,-0.5 Z"/></g>
<g><path style="opacity:1" fill="#fcfae9" d="M 509.5,307.5 C 533.308,306.806 550.141,317.14 560,338.5C 566.48,363.403 559.313,383.237 538.5,398C 510.787,410.455 488.954,403.955 473,378.5C 461.654,349.737 469.154,327.571 495.5,312C 500.184,310.17 504.851,308.67 509.5,307.5 Z"/></g>
<g><path style="opacity:1" fill="#0b1723" d="M 432.5,337.5 C 364.167,337.5 295.833,337.5 227.5,337.5C 227.062,337.565 226.728,337.399 226.5,337C 227.167,336.667 227.833,336.333 228.5,336C 296.167,335.333 363.833,335.333 431.5,336C 432.167,336.333 432.833,336.667 433.5,337C 433.272,337.399 432.938,337.565 432.5,337.5 Z"/></g>
<g><path style="opacity:1" fill="#e0e5d8" d="M 599.5,338.5 C 664.332,337.335 729.332,337.168 794.5,338C 795.737,338.232 796.737,338.732 797.5,339.5C 731.523,338.514 665.523,338.181 599.5,338.5 Z"/></g>
<g><path style="opacity:1" fill="#f8f7e8" d="M 227.5,337.5 C 295.833,337.5 364.167,337.5 432.5,337.5C 439.606,341.559 441.439,347.559 438,355.5C 435.749,357.377 433.249,358.877 430.5,360C 363.167,360.667 295.833,360.667 228.5,360C 219.921,356.02 217.754,349.853 222,341.5C 223.812,340.023 225.645,338.69 227.5,337.5 Z"/></g>
<g><path style="opacity:1" fill="#f9f8e8" d="M 599.5,338.5 C 665.523,338.181 731.523,338.514 797.5,339.5C 803.953,343.595 805.12,348.928 801,355.5C 798.749,357.377 796.249,358.877 793.5,360C 728.167,360.667 662.833,360.667 597.5,360C 590.655,355.775 588.822,349.942 592,342.5C 593.883,339.976 596.383,338.642 599.5,338.5 Z"/></g>
<g><path style="opacity:1" fill="#000f1f" d="M 598.5,381.5 C 597.833,381.5 597.167,381.5 596.5,381.5C 596.062,381.565 595.728,381.399 595.5,381C 596.167,380.667 596.833,380.333 597.5,380C 662.833,379.333 728.167,379.333 793.5,380C 728.332,380.167 663.332,380.667 598.5,381.5 Z"/></g>
<g><path style="opacity:1" fill="#f8f8e7" d="M 227.5,381.5 C 296.167,381.333 364.834,381.5 433.5,382C 437.953,384.071 439.953,387.571 439.5,392.5C 439.803,398.368 437.137,402.202 431.5,404C 363.5,404.667 295.5,404.667 227.5,404C 219.895,400.275 217.728,394.442 221,386.5C 222.805,384.174 224.972,382.508 227.5,381.5 Z"/></g>
<g><path style="opacity:1" fill="#fdfdeb" d="M 596.5,381.5 C 597.167,381.5 597.833,381.5 598.5,381.5C 664.168,381.333 729.834,381.5 795.5,382C 800.55,383.434 802.883,386.767 802.5,392C 802.573,396.858 800.573,400.525 796.5,403C 729.833,403.667 663.167,403.667 596.5,403C 588.54,395.801 588.54,388.635 596.5,381.5 Z"/></g>
<g><path style="opacity:1" fill="#f8f8e7" d="M 317.5,451.5 C 300.5,451.5 283.5,451.5 266.5,451.5C 266.5,496.167 266.5,540.833 266.5,585.5C 265.467,591.538 261.8,594.538 255.5,594.5C 252.771,594.705 250.438,593.872 248.5,592C 246.934,589.674 245.268,587.508 243.5,585.5C 243.5,541.167 243.5,496.833 243.5,452.5C 229.833,452.5 216.167,452.5 202.5,452.5C 190.878,445.27 190.544,437.437 201.5,429C 240.167,428.333 278.833,428.333 317.5,429C 326.37,431.979 328.87,437.812 325,446.5C 323.143,449.2 320.643,450.866 317.5,451.5 Z"/></g>
<g><path style="opacity:1" fill="#fbfaea" d="M 381.5,428.5 C 388.231,427.448 392.731,430.114 395,436.5C 413.262,483.947 431.929,531.28 451,578.5C 452.304,589.527 447.471,594.693 436.5,594C 434.667,592.833 432.833,591.667 431,590.5C 425.541,577.571 420.041,564.571 414.5,551.5C 394.508,550.334 374.508,550.167 354.5,551C 349.338,563.816 344.171,576.65 339,589.5C 331.953,596.445 325.286,596.111 319,588.5C 318.333,584.833 318.333,581.167 319,577.5C 337.89,530.478 356.557,483.478 375,436.5C 376.305,433.039 378.471,430.372 381.5,428.5 Z"/></g>
<g><path style="opacity:1" fill="#faf9e9" d="M 714.5,428.5 C 744.251,425.139 769.084,434.473 789,456.5C 792.305,460.294 794.472,464.627 795.5,469.5C 793.759,477.708 788.759,480.875 780.5,479C 774.145,473.643 768.145,467.977 762.5,462C 739.49,446.735 716.49,446.735 693.5,462C 673.899,477.45 666.066,497.617 670,522.5C 675.951,546.281 690.451,562.114 713.5,570C 724.985,572.295 736.318,571.795 747.5,568.5C 759.527,571.371 762.194,577.871 755.5,588C 716.02,600.951 683.853,590.784 659,557.5C 640.568,525.424 641.234,493.757 661,462.5C 674.841,444.815 692.674,433.482 714.5,428.5 Z"/></g>
<g><path style="opacity:1" fill="#000a16" d="M 202.5,452.5 C 216.167,452.5 229.833,452.5 243.5,452.5C 243.5,496.833 243.5,541.167 243.5,585.5C 242.501,541.67 242.168,497.67 242.5,453.5C 228.42,453.832 215.087,453.499 202.5,452.5 Z"/></g>
<g><path style="opacity:1" fill="#031d2e" d="M 384.5,476.5 C 391.865,492.903 398.865,509.57 405.5,526.5C 391.833,527.833 378.167,527.833 364.5,526.5C 370.623,509.592 377.289,492.926 384.5,476.5 Z"/></g>
<g><path style="opacity:1" fill="#fcfaea" d="M 476.5,427.5 C 479.893,427.062 482.893,427.895 485.5,430C 521.707,467.04 558.04,503.873 594.5,540.5C 595.333,505.505 595.833,470.505 596,435.5C 602.839,425.191 610.172,424.857 618,434.5C 618.667,486.833 618.667,539.167 618,591.5C 616.192,593.396 614.025,593.896 611.5,593C 573,553.833 534.5,514.667 496,475.5C 495.667,512.167 495.333,548.833 495,585.5C 489.634,595.671 482.634,597.005 474,589.5C 473.333,587.5 472.667,585.5 472,583.5C 471.333,533.5 471.333,483.5 472,433.5C 473.332,431.34 474.832,429.34 476.5,427.5 Z"/></g>
<g><path style="opacity:1" fill="#fdfbeb" d="M 733.5,502.5 C 754.169,502.333 774.836,502.5 795.5,503C 797.587,503.792 799.421,504.959 801,506.5C 802.648,532.746 802.982,559.08 802,585.5C 799.746,592.549 794.913,595.382 787.5,594C 783.763,592.719 781.263,590.219 780,586.5C 779.5,566.169 779.333,545.836 779.5,525.5C 764.163,525.667 748.83,525.5 733.5,525C 726.655,520.775 724.822,514.942 728,507.5C 729.73,505.598 731.563,503.931 733.5,502.5 Z"/></g>
<g><path style="opacity:1" fill="#cfd0c7" d="M 317.5,451.5 C 301.008,452.497 284.342,452.83 267.5,452.5C 267.832,497.003 267.499,541.336 266.5,585.5C 266.5,540.833 266.5,496.167 266.5,451.5C 283.5,451.5 300.5,451.5 317.5,451.5 Z"/></g>
<g><path style="opacity:1" fill="#081e2e" d="M 795.5,615.5 C 708.167,615.5 620.833,615.5 533.5,615.5C 532.761,615.631 532.094,615.464 531.5,615C 532.5,614.667 533.5,614.333 534.5,614C 621.5,613.333 708.5,613.333 795.5,614C 796.738,614.69 796.738,615.19 795.5,615.5 Z"/></g>
<g><path style="opacity:1" fill="#eaeeda" d="M 533.5,616.5 C 533.5,616.167 533.5,615.833 533.5,615.5C 620.833,615.5 708.167,615.5 795.5,615.5C 797.349,616.593 799.016,617.926 800.5,619.5C 799.883,619.611 799.383,619.944 799,620.5C 797.764,618.462 795.931,617.295 793.5,617C 706.694,616.693 620.028,616.526 533.5,616.5 Z"/></g>
<g><path style="opacity:1" fill="#fcfbe9" d="M 227.5,615.5 C 314.501,615.333 401.501,615.5 488.5,616C 495.913,620.696 497.413,626.863 493,634.5C 491.2,636.317 489.034,637.484 486.5,638C 399.833,638.667 313.167,638.667 226.5,638C 216.852,630.057 217.185,622.557 227.5,615.5 Z"/></g>
<g><path style="opacity:1" fill="#fdfcea" d="M 533.5,616.5 C 620.028,616.526 706.694,616.693 793.5,617C 795.931,617.295 797.764,618.462 799,620.5C 799.383,619.944 799.883,619.611 800.5,619.5C 801.222,619.918 801.722,620.584 802,621.5C 804.237,628.845 802.07,634.345 795.5,638C 707.5,638.667 619.5,638.667 531.5,638C 524.216,633.213 522.716,627.046 527,619.5C 528.734,617.549 530.901,616.549 533.5,616.5 Z"/></g>
<g><path style="opacity:1" fill="#faf9e8" d="M 227.5,659.5 C 416.167,659.333 604.834,659.5 793.5,660C 803.34,663.181 805.84,669.347 801,678.5C 799.421,680.041 797.587,681.208 795.5,682C 605.833,682.667 416.167,682.667 226.5,682C 216.863,674.008 217.196,666.508 227.5,659.5 Z"/></g>
</svg>
