<svg t="1704872620098" class="icon" viewBox="0 0 1024 1024" version="1.1" xmlns="http://www.w3.org/2000/svg" p-id="990" width="32" height="32"><path d="M511.706311 0.060375c-282.59624 0-511.684822 229.089605-511.684822 511.684822s229.089605 511.684822 511.684822 511.684822 511.684822-229.089605 511.684822-511.684822S794.301528 0.060375 511.706311 0.060375zM256.95628 437.198364c-0.641613-1.695618-1.092891-3.481288-1.092891-5.414313L255.863389 271.892457c0-8.831132 7.15905-15.989159 15.989159-15.989159 8.831132 0 15.989159 7.15905 15.989159 15.989159l0 116.082832c43.61945-78.727039 127.471207-132.073014 223.849254-132.073014 130.435725 0 237.85013 97.685833 253.618255 223.849254l-32.311917 0c-15.554254-108.438735-108.564601-191.869912-221.306338-191.869912-89.268116 0-166.197206 52.315506-202.118324 127.913275l122.171504 0c8.831132 0 15.989159 7.15905 15.989159 15.989159 0 8.829086-7.158027 15.988136-15.989159 15.988136L297.235658 447.772186l-25.38311 0-7.500834 0c0.157589-0.60989 0.214894-1.254573 0.3776-1.863441-2.072195-1.050935-3.78521-2.548032-5.215792-4.353145-0.653893-0.796132-1.226944-1.629103-1.715061-2.542916C257.486352 438.412005 257.190617 437.841 256.95628 437.198364zM767.519558 751.570307c0 8.828063-7.15905 15.988136-15.989159 15.988136-8.831132 0-15.989159-7.160073-15.989159-15.988136L735.541239 635.487475c-43.61945 78.724992-127.471207 132.070968-223.849254 132.070968-130.435725 0-237.851153-97.688903-253.618255-223.850278l32.311917 0c15.553231 108.437711 108.564601 191.871959 221.306338 191.871959 89.245603 0 166.064176-52.356438 202.017016-127.913275L591.637782 607.66685c-8.830109 0-15.989159-7.15905-15.989159-15.988136 0-8.831132 7.15905-15.991206 15.989159-15.991206L719.55208 575.687508l6.596232 0 32.883945 0c-0.157589 0.60989-0.215918 1.25662-0.3776 1.864464 2.072195 1.049912 3.784186 2.545986 5.215792 4.352121 0.653893 0.797156 1.225921 1.63115 1.715061 2.544963 0.311085 0.600681 0.606821 1.171686 0.841158 1.815345 0.641613 1.695618 1.092891 3.481288 1.092891 5.414313L767.519558 751.570307z" fill="#8a8a8a" p-id="991"></path></svg>